<svg xmlns="http://www.w3.org/2000/svg" xmlns:xlink="http://www.w3.org/1999/xlink" width="300" zoomAndPan="magnify" viewBox="0 0 224.87999 33.749998" height="45" preserveAspectRatio="xMidYMid meet" version="1.0"><defs><clipPath id="afa349b09e"><path d="M 2.050781 1.652344 L 9.652344 1.652344 L 9.652344 9.257812 L 2.050781 9.257812 Z M 2.050781 1.652344 " clip-rule="nonzero"/></clipPath><clipPath id="e2d8f600dc"><path d="M 5.851562 1.652344 C 3.753906 1.652344 2.050781 3.355469 2.050781 5.457031 C 2.050781 7.554688 3.753906 9.257812 5.851562 9.257812 C 7.953125 9.257812 9.652344 7.554688 9.652344 5.457031 C 9.652344 3.355469 7.953125 1.652344 5.851562 1.652344 " clip-rule="nonzero"/></clipPath><clipPath id="70bb9310af"><path d="M 215.09375 23.722656 L 223.230469 23.722656 L 223.230469 31.980469 L 215.09375 31.980469 Z M 215.09375 23.722656 " clip-rule="nonzero"/></clipPath><clipPath id="1d0f19d9ba"><path d="M 219.222656 23.722656 C 216.941406 23.722656 215.09375 25.570312 215.09375 27.851562 C 215.09375 30.128906 216.941406 31.980469 219.222656 31.980469 C 221.503906 31.980469 223.351562 30.128906 223.351562 27.851562 C 223.351562 25.570312 221.503906 23.722656 219.222656 23.722656 " clip-rule="nonzero"/></clipPath></defs><path fill="#404145" d="M 3.015625 11.933594 L 8.847656 11.933594 L 8.847656 32.011719 L 3.015625 32.011719 Z M 5.929688 9.121094 Z M 5.929688 9.121094 " fill-opacity="1" fill-rule="nonzero"/><path fill="#404145" d="M 20.640625 12.367188 L 25.792969 12.367188 L 25.792969 16.851562 L 20.78125 16.851562 L 20.78125 32.011719 L 14.960938 32.011719 L 14.960938 16.851562 L 11.859375 16.851562 L 11.859375 12.367188 L 14.960938 12.367188 L 14.960938 11.480469 C 14.960938 9.183594 15.636719 7.367188 16.996094 6.019531 C 18.347656 4.675781 20.257812 4 22.722656 4 C 23.597656 4 24.429688 4.101562 25.203125 4.296875 C 25.988281 4.484375 26.648438 4.746094 27.175781 5.089844 L 25.636719 9.308594 C 24.964844 8.835938 24.179688 8.59375 23.28125 8.59375 C 21.519531 8.59375 20.640625 9.570312 20.640625 11.511719 Z M 20.640625 12.367188 " fill-opacity="1" fill-rule="nonzero"/><path fill="#404145" d="M 34.261719 14.570312 C 34.949219 13.609375 35.890625 12.878906 37.070312 12.382812 C 38.257812 11.878906 39.621094 11.621094 41.167969 11.621094 L 41.167969 17.007812 C 40.515625 16.957031 40.078125 16.929688 39.863281 16.929688 C 38.1875 16.929688 36.875 17.394531 35.9375 18.324219 C 34.992188 19.257812 34.523438 20.660156 34.523438 22.53125 L 34.523438 32.011719 L 28.691406 32.011719 L 28.691406 11.933594 L 34.261719 11.933594 Z M 34.261719 14.570312 " fill-opacity="1" fill-rule="nonzero"/><path fill="#404145" d="M 52.875 11.621094 C 55.988281 11.621094 58.375 12.367188 60.046875 13.855469 C 61.710938 15.339844 62.542969 17.566406 62.542969 20.542969 L 62.542969 32.011719 L 57.097656 32.011719 L 57.097656 29.515625 C 56 31.375 53.960938 32.308594 50.980469 32.308594 C 49.429688 32.308594 48.089844 32.046875 46.964844 31.53125 C 45.835938 31.003906 44.96875 30.28125 44.371094 29.359375 C 43.769531 28.441406 43.472656 27.394531 43.472656 26.222656 C 43.472656 24.363281 44.171875 22.898438 45.582031 21.832031 C 46.988281 20.757812 49.160156 20.21875 52.101562 20.21875 L 56.722656 20.21875 C 56.722656 18.945312 56.335938 17.96875 55.558594 17.285156 C 54.792969 16.601562 53.640625 16.261719 52.101562 16.261719 C 51.019531 16.261719 49.964844 16.433594 48.933594 16.773438 C 47.910156 17.105469 47.03125 17.558594 46.3125 18.125 L 44.214844 14.058594 C 45.308594 13.28125 46.625 12.683594 48.15625 12.257812 C 49.6875 11.835938 51.261719 11.621094 52.875 11.621094 Z M 52.425781 28.398438 C 53.425781 28.398438 54.3125 28.171875 55.078125 27.714844 C 55.855469 27.25 56.402344 26.566406 56.722656 25.664062 L 56.722656 23.617188 L 52.734375 23.617188 C 50.347656 23.617188 49.152344 24.402344 49.152344 25.960938 C 49.152344 26.707031 49.4375 27.304688 50.019531 27.746094 C 50.609375 28.179688 51.410156 28.398438 52.425781 28.398438 Z M 52.425781 28.398438 " fill-opacity="1" fill-rule="nonzero"/><path fill="#404145" d="M 93.53125 11.621094 C 96.046875 11.621094 98.039062 12.367188 99.519531 13.855469 C 101 15.339844 101.742188 17.558594 101.742188 20.511719 L 101.742188 32.011719 L 95.921875 32.011719 L 95.921875 21.414062 C 95.921875 19.824219 95.585938 18.632812 94.929688 17.84375 C 94.265625 17.0625 93.328125 16.664062 92.117188 16.664062 C 90.742188 16.664062 89.65625 17.109375 88.859375 18 C 88.0625 18.878906 87.664062 20.1875 87.664062 21.925781 L 87.664062 32.011719 L 81.847656 32.011719 L 81.847656 21.414062 C 81.847656 18.246094 80.574219 16.664062 78.027344 16.664062 C 76.695312 16.664062 75.625 17.109375 74.832031 18 C 74.03125 18.878906 73.636719 20.1875 73.636719 21.925781 L 73.636719 32.011719 L 67.800781 32.011719 L 67.800781 11.933594 L 73.371094 11.933594 L 73.371094 14.242188 C 74.117188 13.398438 75.027344 12.75 76.105469 12.304688 C 77.191406 11.851562 78.378906 11.621094 79.671875 11.621094 C 81.089844 11.621094 82.375 11.910156 83.523438 12.476562 C 84.671875 13.035156 85.589844 13.847656 86.285156 14.910156 C 87.109375 13.867188 88.148438 13.0625 89.402344 12.492188 C 90.664062 11.914062 92.042969 11.621094 93.53125 11.621094 Z M 93.53125 11.621094 " fill-opacity="1" fill-rule="nonzero"/><path fill="#404145" d="M 126.628906 22.050781 C 126.628906 22.125 126.589844 22.648438 126.519531 23.617188 L 111.328125 23.617188 C 111.59375 24.859375 112.234375 25.84375 113.25 26.566406 C 114.277344 27.28125 115.546875 27.636719 117.070312 27.636719 C 118.113281 27.636719 119.039062 27.480469 119.847656 27.171875 C 120.660156 26.859375 121.417969 26.371094 122.113281 25.695312 L 125.214844 29.0625 C 123.324219 31.230469 120.558594 32.308594 116.929688 32.308594 C 114.664062 32.308594 112.652344 31.867188 110.90625 30.988281 C 109.171875 30.101562 107.824219 28.875 106.875 27.3125 C 105.929688 25.738281 105.460938 23.957031 105.460938 21.972656 C 105.460938 20.007812 105.925781 18.230469 106.859375 16.648438 C 107.789062 15.066406 109.070312 13.835938 110.707031 12.957031 C 112.339844 12.066406 114.167969 11.621094 116.183594 11.621094 C 118.148438 11.621094 119.929688 12.046875 121.523438 12.894531 C 123.113281 13.742188 124.363281 14.957031 125.261719 16.539062 C 126.171875 18.117188 126.628906 19.949219 126.628906 22.050781 Z M 116.214844 16.027344 C 114.886719 16.027344 113.777344 16.410156 112.878906 17.160156 C 111.988281 17.90625 111.445312 18.925781 111.25 20.21875 L 121.148438 20.21875 C 120.941406 18.945312 120.390625 17.933594 119.488281 17.175781 C 118.597656 16.414062 117.507812 16.027344 116.214844 16.027344 Z M 116.214844 16.027344 " fill-opacity="1" fill-rule="nonzero"/><path fill="#404145" d="M 162.761719 11.933594 L 155.484375 32.011719 L 149.882812 32.011719 L 145.367188 19.535156 L 140.695312 32.011719 L 135.09375 32.011719 L 127.84375 11.933594 L 133.339844 11.933594 L 138.085938 25.511719 L 143.007812 11.933594 L 147.941406 11.933594 L 152.722656 25.511719 L 157.609375 11.933594 Z M 162.761719 11.933594 " fill-opacity="1" fill-rule="nonzero"/><path fill="#404145" d="M 185.144531 22.050781 C 185.144531 22.125 185.105469 22.648438 185.039062 23.617188 L 169.84375 23.617188 C 170.113281 24.859375 170.753906 25.84375 171.769531 26.566406 C 172.792969 27.28125 174.066406 27.636719 175.585938 27.636719 C 176.628906 27.636719 177.558594 27.480469 178.363281 27.171875 C 179.179688 26.859375 179.9375 26.371094 180.628906 25.695312 L 183.734375 29.0625 C 181.839844 31.230469 179.078125 32.308594 175.445312 32.308594 C 173.179688 32.308594 171.171875 31.867188 169.425781 30.988281 C 167.6875 30.101562 166.339844 28.875 165.390625 27.3125 C 164.449219 25.738281 163.980469 23.957031 163.980469 21.972656 C 163.980469 20.007812 164.445312 18.230469 165.375 16.648438 C 166.308594 15.066406 167.585938 13.835938 169.222656 12.957031 C 170.859375 12.066406 172.683594 11.621094 174.703125 11.621094 C 176.664062 11.621094 178.445312 12.046875 180.039062 12.894531 C 181.632812 13.742188 182.878906 14.957031 183.78125 16.539062 C 184.6875 18.117188 185.144531 19.949219 185.144531 22.050781 Z M 174.734375 16.027344 C 173.40625 16.027344 172.296875 16.410156 171.398438 17.160156 C 170.503906 17.90625 169.960938 18.925781 169.765625 20.21875 L 179.667969 20.21875 C 179.457031 18.945312 178.90625 17.933594 178.007812 17.175781 C 177.117188 16.414062 176.023438 16.027344 174.734375 16.027344 Z M 174.734375 16.027344 " fill-opacity="1" fill-rule="nonzero"/><path fill="#404145" d="M 200.886719 11.621094 C 202.757812 11.621094 204.460938 12.050781 205.992188 12.910156 C 207.523438 13.769531 208.726562 14.980469 209.59375 16.539062 C 210.464844 18.09375 210.898438 19.90625 210.898438 21.972656 C 210.898438 24.03125 210.464844 25.84375 209.59375 27.402344 C 208.726562 28.957031 207.523438 30.160156 205.992188 31.019531 C 204.460938 31.878906 202.757812 32.308594 200.886719 32.308594 C 198.125 32.308594 196.023438 31.4375 194.589844 29.699219 L 194.589844 32.011719 L 189.015625 32.011719 L 189.015625 4.3125 L 194.851562 4.3125 L 194.851562 14.058594 C 196.320312 12.4375 198.332031 11.621094 200.886719 11.621094 Z M 199.878906 27.527344 C 201.378906 27.527344 202.601562 27.027344 203.558594 26.023438 C 204.519531 25.011719 205 23.660156 205 21.972656 C 205 20.277344 204.519531 18.925781 203.558594 17.921875 C 202.601562 16.910156 201.378906 16.402344 199.878906 16.402344 C 198.390625 16.402344 197.164062 16.910156 196.203125 17.921875 C 195.246094 18.925781 194.773438 20.277344 194.773438 21.972656 C 194.773438 23.660156 195.246094 25.011719 196.203125 26.023438 C 197.164062 27.027344 198.390625 27.527344 199.878906 27.527344 Z M 199.878906 27.527344 " fill-opacity="1" fill-rule="nonzero"/><g clip-path="url(#afa349b09e)"><g clip-path="url(#e2d8f600dc)"><path fill="#ff653d" d="M 2.050781 1.652344 L 9.652344 1.652344 L 9.652344 9.257812 L 2.050781 9.257812 Z M 2.050781 1.652344 " fill-opacity="1" fill-rule="nonzero"/></g></g><g clip-path="url(#70bb9310af)"><g clip-path="url(#1d0f19d9ba)"><path fill="#1dbf75" d="M 215.09375 23.722656 L 223.351562 23.722656 L 223.351562 31.980469 L 215.09375 31.980469 Z M 215.09375 23.722656 " fill-opacity="1" fill-rule="nonzero"/></g></g></svg>